<svg width="47" height="31" viewBox="0 0 47 31" fill="none" xmlns="http://www.w3.org/2000/svg">
<path d="M46.5353 19.2373C44.5938 15.779 36.4031 1.39982 35.9177 0.975121C35.4323 0.489747 34.5222 0.975121 34.5222 0.975121C34.5222 0.975121 15.714 7.83103 15.1073 8.07372C14.5006 8.31641 13.8938 9.34783 13.8938 9.34783L0 26.5786C0 26.5786 0.060672 28.0347 0.970749 27.5494C1.45612 27.3067 21.5992 20.0261 21.5992 20.2081L27.1203 29.6729C27.1203 29.6729 27.4843 30.2189 27.727 30.3403C28.2124 30.5223 29.3045 29.7942 29.3045 29.7942L46.4746 20.2687C46.4746 20.2687 46.7173 20.0867 46.7779 19.9047C46.7173 19.662 46.8386 19.662 46.5353 19.2373ZM16.5027 18.0239L13.7118 18.9946L15.7747 16.3251L18.5656 15.3543L16.5027 18.0239ZM19.233 15.9004C19.415 16.2644 19.597 16.5678 19.779 16.8711L18.0195 17.4778L19.233 15.9004ZM12.3164 19.5407L9.52547 20.5114L11.5883 17.8419L14.3792 16.8711L12.3164 19.5407ZM16.9274 14.869L17.8982 13.5949C18.0802 13.8375 18.2015 14.1409 18.3229 14.3836L16.9274 14.869ZM15.4106 15.415L12.6804 16.3858L14.7432 13.7162L17.4128 12.7454C17.4128 12.7454 17.4128 12.7454 17.4128 12.8061L15.4106 15.415ZM15.8353 12.2601L16.5634 11.2893C16.6847 11.4713 16.8061 11.6534 16.9274 11.896L15.8353 12.2601ZM14.2579 10.8039L15.9567 10.1972C16.0174 10.2579 16.0174 10.3792 16.078 10.4399L14.3185 12.7454L12.013 13.5342C13.1051 12.2601 13.8938 11.2893 14.2579 10.8039ZM10.8602 15.051L13.2871 14.2016L11.2243 16.8711L8.67607 17.7812C9.40413 16.8711 10.1322 15.9611 10.8602 15.051ZM7.46263 19.2373L10.1322 18.2666L8.06935 20.9968L5.21777 22.0282C5.88516 21.1788 6.6739 20.2081 7.46263 19.2373ZM19.5363 19.6014L18.0802 20.0867C17.2308 20.3901 16.3207 20.6935 15.35 21.0575L13.8938 21.6035C12.9838 21.9069 12.0737 22.2709 11.1029 22.5743L9.64681 23.1203C8.67607 23.4844 3.03359 25.5472 2.18418 25.8506C2.18418 25.8506 2.91225 24.9405 4.06501 23.4844L20.2037 17.7812C20.2037 17.7812 20.9318 19.116 20.9318 19.1767C20.5677 19.2373 20.0824 19.4193 19.5363 19.6014ZM28.091 29.0055L16.5634 8.80178C19.597 7.70969 28.6371 4.37274 34.9469 2.06721L35.0683 2.00654L35.1896 1.94587C36.3424 3.70535 41.6208 12.9881 45.3218 19.48C45.3218 19.48 28.2731 28.9448 28.091 29.0055Z" fill="white"/>
<path d="M14.3791 10.7433C14.5004 10.5006 14.5611 10.5006 14.3791 10.7433V10.7433Z" fill="white"/>
<path d="M34.8862 12.5027C34.8862 13.6555 33.4301 14.8689 31.7313 15.233C30.0325 15.597 28.6371 14.9903 28.6371 13.8982C28.6371 12.7454 30.0932 11.532 31.792 11.168C33.5515 10.7433 34.8862 11.35 34.8862 12.5027Z" fill="white"/>
</svg>
