<svg width="198" height="36" viewBox="0 0 198 36" fill="none" xmlns="http://www.w3.org/2000/svg">
<path d="M62.2929 30.3839C59.3069 30.3839 57.0887 29.3815 55.6384 27.3766C54.2093 25.3504 53.4948 22.503 53.4948 18.8344C53.4948 15.1659 54.2093 12.3292 55.6384 10.3243C57.0887 8.29803 59.3069 7.28491 62.2929 7.28491C63.4447 7.28491 64.4578 7.44488 65.3323 7.76481C66.2281 8.06341 66.9959 8.48999 67.6358 9.04453C68.2756 9.59908 68.7982 10.2709 69.2034 11.0601C69.63 11.8493 69.9606 12.7344 70.1952 13.7155L65.7162 14.8033C65.5882 14.2701 65.4389 13.7795 65.2683 13.3316C65.0976 12.8837 64.8737 12.4998 64.5964 12.1799C64.3405 11.8599 64.0099 11.6146 63.6046 11.444C63.2207 11.2521 62.7515 11.1561 62.1969 11.1561C60.8959 11.1561 59.9681 11.668 59.4135 12.6917C58.8803 13.6942 58.6137 15.0912 58.6137 16.8828V20.786C58.6137 22.5776 58.8803 23.9853 59.4135 25.0091C59.9681 26.0115 60.8959 26.5128 62.1969 26.5128C63.306 26.5128 64.1059 26.1715 64.5964 25.489C65.1083 24.8065 65.4816 23.932 65.7162 22.8656L70.1952 23.9533C69.9606 24.9344 69.63 25.8196 69.2034 26.6087C68.7982 27.3979 68.2756 28.0804 67.6358 28.6563C66.9959 29.2109 66.2281 29.6374 65.3323 29.936C64.4578 30.2346 63.4447 30.3839 62.2929 30.3839Z" fill="white"/>
<path d="M79.8446 30.3839C76.8586 30.3839 74.6511 29.3708 73.2221 27.3446C71.8144 25.3184 71.1105 22.4816 71.1105 18.8344C71.1105 15.1872 71.8144 12.3505 73.2221 10.3243C74.6511 8.29803 76.8586 7.28491 79.8446 7.28491C82.8307 7.28491 85.0275 8.29803 86.4352 10.3243C87.8642 12.3505 88.5788 15.1872 88.5788 18.8344C88.5788 22.4816 87.8642 25.3184 86.4352 27.3446C85.0275 29.3708 82.8307 30.3839 79.8446 30.3839ZM79.8446 26.5128C81.2097 26.5128 82.1481 26.0115 82.66 25.0091C83.1932 23.9853 83.4599 22.567 83.4599 20.754V16.8828C83.4599 15.0912 83.1932 13.6942 82.66 12.6917C82.1481 11.668 81.2097 11.1561 79.8446 11.1561C78.4796 11.1561 77.5305 11.668 76.9972 12.6917C76.4854 13.6942 76.2294 15.0912 76.2294 16.8828V20.786C76.2294 22.5776 76.4854 23.9853 76.9972 25.0091C77.5305 26.0115 78.4796 26.5128 79.8446 26.5128Z" fill="white"/>
<path d="M90.3579 7.66883H97.5563C100.564 7.66883 102.793 8.62862 104.243 10.5482C105.693 12.4678 106.418 15.2299 106.418 18.8344C106.418 22.439 105.693 25.2011 104.243 27.1206C102.793 29.0402 100.564 30 97.5563 30H90.3579V7.66883ZM97.2364 26.2248C98.6654 26.2248 99.7105 25.7663 100.372 24.8491C101.033 23.932 101.363 22.5989 101.363 20.85V16.7869C101.363 15.0592 101.033 13.7369 100.372 12.8197C99.7105 11.9026 98.6654 11.444 97.2364 11.444H95.0928V26.2248H97.2364Z" fill="white"/>
<path d="M108.933 30V7.66883H123.202V11.604H113.732V16.7229H122.882V20.658H113.732V26.0649H123.202V30H108.933Z" fill="white"/>
<path d="M134.771 30.3839C132.041 30.3839 130.004 29.3921 128.661 27.4086C127.338 25.425 126.677 22.567 126.677 18.8344C126.677 15.1019 127.338 12.2438 128.661 10.2603C130.004 8.2767 132.041 7.28491 134.771 7.28491C135.795 7.28491 136.68 7.42355 137.427 7.70082C138.173 7.9781 138.813 8.35135 139.346 8.82058C139.88 9.28981 140.327 9.82303 140.69 10.4202C141.053 10.9961 141.373 11.5827 141.65 12.1799L139.346 13.2356C139.154 12.7451 138.93 12.2865 138.674 11.8599C138.419 11.412 138.109 11.0281 137.747 10.7082C137.405 10.3669 136.989 10.1003 136.499 9.90835C136.03 9.71639 135.454 9.62041 134.771 9.62041C133.001 9.62041 131.679 10.2923 130.804 11.636C129.951 12.9797 129.524 14.7713 129.524 17.0108V20.658C129.524 22.8975 129.951 24.6892 130.804 26.0329C131.679 27.3766 133.001 28.0484 134.771 28.0484C135.454 28.0484 136.03 27.9525 136.499 27.7605C136.989 27.5685 137.405 27.3126 137.747 26.9927C138.109 26.6514 138.419 26.2675 138.674 25.8409C138.93 25.393 139.154 24.9238 139.346 24.4332L141.65 25.489C141.373 26.1075 141.053 26.7047 140.69 27.2806C140.327 27.8565 139.88 28.379 139.346 28.8483C138.813 29.3175 138.173 29.6907 137.427 29.968C136.68 30.2453 135.795 30.3839 134.771 30.3839Z" fill="white"/>
<path d="M157.89 30L156.002 23.6334H148.164L146.276 30H143.493L150.339 7.66883H153.891L160.737 30H157.89ZM152.227 10.5162H151.939L148.804 21.2979H155.362L152.227 10.5162Z" fill="white"/>
<path d="M175.122 18.8024V11.732H174.866L170.163 23.2175L165.46 11.732H165.204V18.8024V30H162.74V7.66883H166.196L170.131 17.5227H170.323L174.258 7.66883H177.585V30H175.122V18.8024Z" fill="white"/>
<path d="M181.508 30V7.66883H189.634C191.703 7.66883 193.281 8.23404 194.369 9.36446C195.457 10.4949 196.001 12.0732 196.001 14.0994C196.001 16.1257 195.457 17.704 194.369 18.8344C193.281 19.9648 191.703 20.5301 189.634 20.5301H184.195V30H181.508ZM184.195 18.1946H189.57C190.7 18.1946 191.575 17.9173 192.193 17.3627C192.833 16.7869 193.153 15.9764 193.153 14.9313V13.2676C193.153 12.2225 192.833 11.4227 192.193 10.8681C191.575 10.2923 190.7 10.0043 189.57 10.0043H184.195V18.1946Z" fill="white"/>
<path d="M46.5353 24.0479C44.5938 20.5896 36.4031 6.21043 35.9177 5.78573C35.4323 5.30035 34.5222 5.78573 34.5222 5.78573C34.5222 5.78573 15.714 12.6416 15.1073 12.8843C14.5006 13.127 13.8938 14.1584 13.8938 14.1584L0 31.3892C0 31.3892 0.060672 32.8453 0.970749 32.36C1.45612 32.1173 21.5992 24.8367 21.5992 25.0187L27.1203 34.4835C27.1203 34.4835 27.4843 35.0295 27.727 35.1509C28.2124 35.3329 29.3045 34.6048 29.3045 34.6048L46.4746 25.0794C46.4746 25.0794 46.7173 24.8973 46.7779 24.7153C46.7173 24.4726 46.8386 24.4726 46.5353 24.0479ZM16.5027 22.8345L13.7118 23.8052L15.7747 21.1357L18.5656 20.1649L16.5027 22.8345ZM19.233 20.711C19.415 21.075 19.597 21.3784 19.779 21.6817L18.0195 22.2885L19.233 20.711ZM12.3164 24.3513L9.52547 25.322L11.5883 22.6525L14.3792 21.6817L12.3164 24.3513ZM16.9274 19.6796L17.8982 18.4055C18.0802 18.6481 18.2015 18.9515 18.3229 19.1942L16.9274 19.6796ZM15.4106 20.2256L12.6804 21.1964L14.7432 18.5268L17.4128 17.5561C17.4128 17.5561 17.4128 17.5561 17.4128 17.6167L15.4106 20.2256ZM15.8353 17.0707L16.5634 16.0999C16.6847 16.2819 16.8061 16.464 16.9274 16.7067L15.8353 17.0707ZM14.2579 15.6146L15.9567 15.0078C16.0174 15.0685 16.0174 15.1899 16.078 15.2505L14.3185 17.5561L12.013 18.3448C13.1051 17.0707 13.8938 16.0999 14.2579 15.6146ZM10.8602 19.8616L13.2871 19.0122L11.2243 21.6817L8.67607 22.5918C9.40413 21.6817 10.1322 20.7717 10.8602 19.8616ZM7.46263 24.0479L10.1322 23.0772L8.06935 25.8074L5.21777 26.8388C5.88516 25.9894 6.6739 25.0187 7.46263 24.0479ZM19.5363 24.412L18.0802 24.8973C17.2308 25.2007 16.3207 25.5041 15.35 25.8681L13.8938 26.4141C12.9838 26.7175 12.0737 27.0815 11.1029 27.3849L9.64681 27.9309C8.67607 28.295 3.03359 30.3578 2.18418 30.6612C2.18418 30.6612 2.91225 29.7511 4.06501 28.295L20.2037 22.5918C20.2037 22.5918 20.9318 23.9266 20.9318 23.9873C20.5677 24.0479 20.0824 24.23 19.5363 24.412ZM28.091 33.8161L16.5634 13.6124C19.597 12.5203 28.6371 9.18335 34.9469 6.87782L35.0683 6.81715L35.1896 6.75648C36.3424 8.51596 41.6208 17.7987 45.3218 24.2906C45.3218 24.2906 28.2731 33.7554 28.091 33.8161Z" fill="white"/>
<path d="M14.3791 15.5539C14.5004 15.3112 14.5611 15.3112 14.3791 15.5539V15.5539Z" fill="white"/>
<path d="M34.8862 17.3133C34.8862 18.4661 33.4301 19.6795 31.7313 20.0436C30.0325 20.4076 28.6371 19.8009 28.6371 18.7088C28.6371 17.556 30.0932 16.3426 31.792 15.9786C33.5515 15.5539 34.8862 16.1606 34.8862 17.3133Z" fill="white"/>
</svg>
